<!DOCTYPE svg PUBLIC "-//W3C//DTD SVG 1.1//EN" "http://www.w3.org/Graphics/SVG/1.1/DTD/svg11.dtd">
<!-- Uploaded to: SVG Repo, www.svgrepo.com, Transformed by: SVG Repo Mixer Tools -->
<svg fill="#ffffff" height="64px" width="64px" version="1.1" id="Capa_1" xmlns="http://www.w3.org/2000/svg" xmlns:xlink="http://www.w3.org/1999/xlink" viewBox="-6 -6 72.00 72.00" xml:space="preserve" stroke="#ffffff" stroke-width="0.0006000000000000001">
<g id="SVGRepo_bgCarrier" stroke-width="0"/>
<g id="SVGRepo_tracerCarrier" stroke-linecap="round" stroke-linejoin="round" stroke="#CCCCCC" stroke-width="0.72"/>
<g id="SVGRepo_iconCarrier"> <path d="M30,0C13.458,0,0,13.458,0,30s13.458,30,30,30s30-13.458,30-30S46.542,0,30,0z M45.563,30.826l-22,15 C23.394,45.941,23.197,46,23,46c-0.16,0-0.321-0.038-0.467-0.116C22.205,45.711,22,45.371,22,45V15c0-0.371,0.205-0.711,0.533-0.884 c0.328-0.174,0.724-0.15,1.031,0.058l22,15C45.836,29.36,46,29.669,46,30S45.836,30.64,45.563,30.826z"/> </g>
</svg>